# 3ds Max Wavefront OBJ Exporter v0.97b - (c)2007 guruware
# File Created: 31.03.2016 21:07:45

#
# object Plant1
#

v  -0.7217 0.3007 0.1805
v  -0.5414 0.3436 0.1805
v  -0.5414 0.3436 -0.2132
v  -0.7217 0.3007 -0.2132
v  -0.3366 0.2843 0.1805
v  -0.1672 0.1072 0.1805
v  -0.1672 0.1072 -0.2132
v  -0.3366 0.2843 -0.2132
v  0.0039 0.0027 0.1805
v  0.0039 0.0027 -0.2132
v  -0.1794 0.3703 -0.7298
v  -0.1770 0.4132 -0.5496
v  0.2167 0.4132 -0.5549
v  0.2143 0.3703 -0.7351
v  -0.1742 0.3539 -0.3447
v  -0.1719 0.1768 -0.1754
v  0.2217 0.1768 -0.1807
v  0.2195 0.3539 -0.3500
v  -0.1696 0.0723 -0.0043
v  0.2240 0.0723 -0.0096
v  0.7258 0.3254 0.1333
v  0.5679 0.3684 0.0463
v  0.3780 0.3684 0.3912
v  0.5360 0.3254 0.4781
v  0.3884 0.3091 -0.0525
v  0.2401 0.1320 -0.1341
v  0.0502 0.1320 0.2107
v  0.1986 0.3091 0.2924
v  0.0902 0.0274 -0.2167
v  -0.0997 0.0274 0.1282
v  -0.1892 0.3254 0.7550
v  -0.1085 0.3684 0.5938
v  -0.4606 0.3684 0.4176
v  -0.5413 0.3254 0.5788
v  -0.0169 0.3091 0.4106
v  0.0589 0.1320 0.2591
v  -0.2932 0.1320 0.0830
v  -0.3690 0.3091 0.2344
v  0.1355 0.0274 0.1061
v  -0.2166 0.0274 -0.0701
v  0.4735 0.3254 -0.5330
v  0.3155 0.3684 -0.4463
v  0.5050 0.3684 -0.1012
v  0.6630 0.3254 -0.1880
v  0.1359 0.3091 -0.3476
v  -0.0125 0.1320 -0.2661
v  0.1770 0.1320 0.0790
v  0.3255 0.3091 -0.0026
v  -0.1625 0.0274 -0.1837
v  0.0270 0.0274 0.1613
v  0.5466 0.3458 0.5142
v  0.4303 0.3887 0.3764
v  0.1294 0.3887 0.6302
v  0.2456 0.3458 0.7680
v  0.2983 0.3294 0.2198
v  0.1891 0.1523 0.0904
v  -0.1119 0.1523 0.3442
v  -0.0027 0.3294 0.4736
v  0.0788 0.0478 -0.0405
v  -0.2222 0.0478 0.2133
v  -0.6819 0.3458 -0.3765
v  -0.5410 0.3887 -0.2641
v  -0.2954 0.3887 -0.5718
v  -0.4363 0.3458 -0.6842
v  -0.3809 0.3294 -0.1363
v  -0.2485 0.1523 -0.0306
v  -0.0029 0.1523 -0.3383
v  -0.1353 0.3294 -0.4440
v  -0.1148 0.0478 0.0761
v  0.1308 0.0478 -0.2316
# 70 vertices

vn -0.2317 0.9728 0.0000
vn 0.0240 0.9997 0.0000
vn 0.0240 0.9997 -0.0000
vn -0.2317 0.9728 -0.0000
vn 0.5182 0.8553 0.0000
vn 0.6272 0.7788 -0.0000
vn 0.6272 0.7788 0.0000
vn 0.5212 0.8534 0.0000
vn -0.0031 0.9728 -0.2317
vn 0.0003 0.9997 0.0240
vn 0.0070 0.8553 0.5182
vn 0.0084 0.7788 0.6272
vn 0.0070 0.8534 0.5212
vn 0.2030 0.9728 0.1118
vn -0.0210 0.9997 -0.0116
vn -0.4540 0.8553 -0.2499
vn -0.5495 0.7788 -0.3025
vn -0.4566 0.8534 -0.2514
vn -0.1037 0.9728 0.2072
vn 0.0107 0.9997 -0.0214
vn 0.2319 0.8553 -0.4634
vn 0.2806 0.7788 -0.5610
vn 0.2332 0.8534 -0.4661
vn 0.2031 0.9728 -0.1116
vn -0.0210 0.9997 0.0115
vn -0.4542 0.8553 0.2495
vn -0.5498 0.7788 0.3020
vn -0.4569 0.8534 0.2509
vn 0.1494 0.9728 0.1771
vn -0.0154 0.9997 -0.0183
vn -0.3341 0.8553 -0.3961
vn -0.4044 0.7788 -0.4795
vn -0.3360 0.8534 -0.3985
vn -0.1811 0.9728 -0.1446
vn 0.0187 0.9997 0.0149
vn 0.4050 0.8553 0.3233
vn 0.4902 0.7788 0.3913
vn 0.4074 0.8534 0.3251
# 38 vertex normals

vt 0.9585 0.0019 0.0000
vt 0.9645 0.2178 0.0000
vt 0.0019 0.2244 0.0000
vt 0.0099 0.0032 0.0000
vt 0.9784 0.4678 0.0000
vt 0.9937 0.7582 0.0000
vt 0.0309 0.7646 0.0000
vt 0.0149 0.4772 0.0000
vt 0.9849 0.9976 0.0000
vt 0.0364 0.9980 0.0000
# 10 texture coords

g Plant1
f 1/1/1 2/2/2 3/3/3 
f 1/1/1 3/3/3 4/4/4 
f 5/5/5 6/6/6 7/7/7 
f 5/5/5 7/7/7 8/8/5 
f 2/2/2 5/5/5 8/8/5 
f 2/2/2 8/8/5 3/3/3 
f 6/6/6 9/9/8 10/10/8 
f 6/6/6 10/10/8 7/7/7 
f 11/1/9 12/2/10 13/3/10 
f 11/1/9 13/3/10 14/4/9 
f 15/5/11 16/6/12 17/7/12 
f 15/5/11 17/7/12 18/8/11 
f 12/2/10 15/5/11 18/8/11 
f 12/2/10 18/8/11 13/3/10 
f 16/6/12 19/9/13 20/10/13 
f 16/6/12 20/10/13 17/7/12 
f 21/1/14 22/2/15 23/3/15 
f 21/1/14 23/3/15 24/4/14 
f 25/5/16 26/6/17 27/7/17 
f 25/5/16 27/7/17 28/8/16 
f 22/2/15 25/5/16 28/8/16 
f 22/2/15 28/8/16 23/3/15 
f 26/6/17 29/9/18 30/10/18 
f 26/6/17 30/10/18 27/7/17 
f 31/1/19 32/2/20 33/3/20 
f 31/1/19 33/3/20 34/4/19 
f 35/5/21 36/6/22 37/7/22 
f 35/5/21 37/7/22 38/8/21 
f 32/2/20 35/5/21 38/8/21 
f 32/2/20 38/8/21 33/3/20 
f 36/6/22 39/9/23 40/10/23 
f 36/6/22 40/10/23 37/7/22 
f 41/1/24 42/2/25 43/3/25 
f 41/1/24 43/3/25 44/4/24 
f 45/5/26 46/6/27 47/7/27 
f 45/5/26 47/7/27 48/8/26 
f 42/2/25 45/5/26 48/8/26 
f 42/2/25 48/8/26 43/3/25 
f 46/6/27 49/9/28 50/10/28 
f 46/6/27 50/10/28 47/7/27 
f 51/1/29 52/2/30 53/3/30 
f 51/1/29 53/3/30 54/4/29 
f 55/5/31 56/6/32 57/7/32 
f 55/5/31 57/7/32 58/8/31 
f 52/2/30 55/5/31 58/8/31 
f 52/2/30 58/8/31 53/3/30 
f 56/6/32 59/9/33 60/10/33 
f 56/6/32 60/10/33 57/7/32 
f 61/1/34 62/2/35 63/3/35 
f 61/1/34 63/3/35 64/4/34 
f 65/5/36 66/6/37 67/7/37 
f 65/5/36 67/7/37 68/8/36 
f 62/2/35 65/5/36 68/8/36 
f 62/2/35 68/8/36 63/3/35 
f 66/6/37 69/9/38 70/10/38 
f 66/6/37 70/10/38 67/7/37 
# 56 faces

